<?xml version="1.0" encoding="UTF-8" standalone="no"?>
<!DOCTYPE svg PUBLIC "-//W3C//DTD SVG 1.1//EN"
 "http://www.w3.org/Graphics/SVG/1.1/DTD/svg11.dtd">
<!-- Generated by graphviz version 8.1.0 (20230707.0739)
 -->
<!-- Pages: 1 -->
<svg width="788pt" height="332pt"
 viewBox="0.00 0.00 788.13 332.00" xmlns="http://www.w3.org/2000/svg" xmlns:xlink="http://www.w3.org/1999/xlink">
<g id="graph0" class="graph" transform="scale(1 1) rotate(0) translate(4 328)">
<polygon fill="white" stroke="none" points="-4,4 -4,-328 784.13,-328 784.13,4 -4,4"/>
<!-- [root] aws_instance.fastapi (expand) -->
<g id="node1" class="node">
<title>[root] aws_instance.fastapi (expand)</title>
<polygon fill="none" stroke="black" points="405.84,-180 278.09,-180 278.09,-144 405.84,-144 405.84,-180"/>
<text text-anchor="middle" x="341.97" y="-156.95" font-family="Times,serif" font-size="14.00">aws_instance.fastapi</text>
</g>
<!-- [root] aws_security_group.fastapi (expand) -->
<g id="node2" class="node">
<title>[root] aws_security_group.fastapi (expand)</title>
<polygon fill="none" stroke="black" points="424.22,-108 259.72,-108 259.72,-72 424.22,-72 424.22,-108"/>
<text text-anchor="middle" x="341.97" y="-84.95" font-family="Times,serif" font-size="14.00">aws_security_group.fastapi</text>
</g>
<!-- [root] aws_instance.fastapi (expand)&#45;&gt;[root] aws_security_group.fastapi (expand) -->
<g id="edge1" class="edge">
<title>[root] aws_instance.fastapi (expand)&#45;&gt;[root] aws_security_group.fastapi (expand)</title>
<path fill="none" stroke="black" d="M341.97,-143.7C341.97,-136.24 341.97,-127.32 341.97,-118.97"/>
<polygon fill="black" stroke="black" points="345.47,-119.1 341.97,-109.1 338.47,-119.1 345.47,-119.1"/>
</g>
<!-- [root] provider[&quot;registry.terraform.io/hashicorp/aws&quot;] -->
<g id="node3" class="node">
<title>[root] provider[&quot;registry.terraform.io/hashicorp/aws&quot;]</title>
<polygon fill="none" stroke="black" points="341.97,-36 77.53,-18 341.97,0 606.4,-18 341.97,-36"/>
<text text-anchor="middle" x="341.97" y="-12.95" font-family="Times,serif" font-size="14.00">provider[&quot;registry.terraform.io/hashicorp/aws&quot;]</text>
</g>
<!-- [root] aws_security_group.fastapi (expand)&#45;&gt;[root] provider[&quot;registry.terraform.io/hashicorp/aws&quot;] -->
<g id="edge2" class="edge">
<title>[root] aws_security_group.fastapi (expand)&#45;&gt;[root] provider[&quot;registry.terraform.io/hashicorp/aws&quot;]</title>
<path fill="none" stroke="black" d="M341.97,-71.7C341.97,-64.24 341.97,-55.32 341.97,-46.97"/>
<polygon fill="black" stroke="black" points="345.47,-47.1 341.97,-37.1 338.47,-47.1 345.47,-47.1"/>
</g>
<!-- [root] output.api_base_url (expand) -->
<g id="node4" class="node">
<title>[root] output.api_base_url (expand)</title>
<ellipse fill="none" stroke="black" cx="142.97" cy="-234" rx="142.97" ry="18"/>
<text text-anchor="middle" x="142.97" y="-228.95" font-family="Times,serif" font-size="14.00">[root] output.api_base_url (expand)</text>
</g>
<!-- [root] output.api_base_url (expand)&#45;&gt;[root] aws_instance.fastapi (expand) -->
<g id="edge3" class="edge">
<title>[root] output.api_base_url (expand)&#45;&gt;[root] aws_instance.fastapi (expand)</title>
<path fill="none" stroke="black" d="M189.62,-216.59C217.27,-206.86 252.57,-194.44 282.24,-184.01"/>
<polygon fill="black" stroke="black" points="283.2,-187.03 291.47,-180.41 280.88,-180.43 283.2,-187.03"/>
</g>
<!-- [root] provider[&quot;registry.terraform.io/hashicorp/aws&quot;] (close) -->
<g id="node5" class="node">
<title>[root] provider[&quot;registry.terraform.io/hashicorp/aws&quot;] (close)</title>
<ellipse fill="none" stroke="black" cx="541.97" cy="-234" rx="238.16" ry="18"/>
<text text-anchor="middle" x="541.97" y="-228.95" font-family="Times,serif" font-size="14.00">[root] provider[&quot;registry.terraform.io/hashicorp/aws&quot;] (close)</text>
</g>
<!-- [root] provider[&quot;registry.terraform.io/hashicorp/aws&quot;] (close)&#45;&gt;[root] aws_instance.fastapi (expand) -->
<g id="edge4" class="edge">
<title>[root] provider[&quot;registry.terraform.io/hashicorp/aws&quot;] (close)&#45;&gt;[root] aws_instance.fastapi (expand)</title>
<path fill="none" stroke="black" d="M493.3,-215.97C465.78,-206.34 431.16,-194.22 401.97,-184"/>
<polygon fill="black" stroke="black" points="403.49,-180.48 392.9,-180.48 401.18,-187.08 403.49,-180.48"/>
</g>
<!-- [root] root -->
<g id="node6" class="node">
<title>[root] root</title>
<ellipse fill="none" stroke="black" cx="341.97" cy="-306" rx="49.3" ry="18"/>
<text text-anchor="middle" x="341.97" y="-300.95" font-family="Times,serif" font-size="14.00">[root] root</text>
</g>
<!-- [root] root&#45;&gt;[root] output.api_base_url (expand) -->
<g id="edge5" class="edge">
<title>[root] root&#45;&gt;[root] output.api_base_url (expand)</title>
<path fill="none" stroke="black" d="M307.3,-292.81C277.61,-282.36 234.26,-267.11 199.54,-254.9"/>
<polygon fill="black" stroke="black" points="201.13,-251.4 190.54,-251.38 198.81,-258 201.13,-251.4"/>
</g>
<!-- [root] root&#45;&gt;[root] provider[&quot;registry.terraform.io/hashicorp/aws&quot;] (close) -->
<g id="edge6" class="edge">
<title>[root] root&#45;&gt;[root] provider[&quot;registry.terraform.io/hashicorp/aws&quot;] (close)</title>
<path fill="none" stroke="black" d="M376.8,-292.81C406.14,-282.54 448.73,-267.63 483.31,-255.53"/>
<polygon fill="black" stroke="black" points="484.01,-258.64 492.3,-252.03 481.7,-252.03 484.01,-258.64"/>
</g>
</g>
</svg>
